<svg width="124" height="43" viewBox="0 0 124 43" fill="none" xmlns="http://www.w3.org/2000/svg">
<path d="M77.7816 25.143C76.6759 23.9918 75.3938 23.1553 74.1549 22.3464L73.7622 22.0895C72.2891 21.1212 71.2029 20.3058 70.2395 19.4432C69.1249 18.4457 68.5916 17.2717 68.5591 15.7482C68.5185 13.8084 69.5713 12.3678 71.1208 12.2451C72.1297 12.1638 72.9134 12.5833 73.5167 13.5231C73.7955 13.958 74.0679 14.4108 74.3297 14.849C74.5459 15.2084 74.7874 15.6084 75.0272 15.9872C75.3987 16.5774 75.8459 16.9181 76.3207 16.9725C76.7507 17.0181 77.1808 16.8311 77.5645 16.4303C77.9247 16.0547 78.1929 15.5197 78.4287 15.0482C78.8025 14.283 79.0661 13.4687 79.2116 12.6296L79.2669 12.3361L78.9889 12.4003C78.6075 12.492 78.2196 12.5545 77.8287 12.5873C76.9905 12.6491 76.0995 12.5263 75.0231 12.202L74.9784 12.189C73.8451 11.8467 72.6736 11.493 71.4623 11.493H71.381C69.4916 11.5093 68.0112 12.6393 66.9803 14.8531C66.5063 15.8718 66.2836 17.0677 66.2803 18.618C66.2803 19.8034 66.4746 20.8716 66.8665 21.7943C67.4453 23.1561 68.264 24.2609 69.2989 25.0804C69.9493 25.595 70.6265 26.0853 71.2818 26.5601C71.6362 26.817 71.9883 27.0722 72.3387 27.3324C72.6639 27.5714 72.989 27.8072 73.3142 28.0446C74.1451 28.6486 75.0036 29.273 75.8109 29.9494C76.6588 30.6599 77.2954 31.6453 77.7035 32.8761C78.0165 33.8257 78.11 34.8663 77.9978 36.059C77.8669 37.4166 77.3474 38.4979 76.4613 39.2702C75.541 40.071 74.4703 40.4401 73.1939 40.4003C71.9175 40.3604 70.8883 39.9353 70.0176 39.0946C69.042 38.1499 68.3607 36.841 68.0006 35.2029C67.7136 33.9021 67.7445 31.4583 67.7608 30.7404V30.6778L67.7047 30.7055C67.2364 30.9347 66.0901 31.564 65.5519 32.4469C65.1403 33.1227 64.9419 33.9069 64.9828 34.6972C65.0332 35.9468 65.5389 37.2256 66.4063 38.2995C67.7518 39.9661 69.6534 40.958 71.9062 41.1686C73.8476 41.3507 75.4605 41.0003 76.8597 40.0922C77.8816 39.4258 78.7243 38.5188 79.3141 37.4508C80.3587 35.5899 80.7449 33.4794 80.4969 30.9989C80.2685 28.7226 79.3807 26.8064 77.7816 25.143Z" fill="#242424"/>
<path d="M20.6124 4.64039C19.4995 3.33962 18.2702 2.37704 16.9613 1.79495C15.8256 1.28539 14.5941 1.02428 13.3492 1.02912C12.802 1.03065 12.2557 1.07441 11.7151 1.16001C9.6144 1.4852 7.6982 2.63232 6.02426 4.56072C4.24058 6.60456 2.94794 9.24025 2.06748 12.6109C1.40083 15.162 1.06182 17.9392 1.0293 21.0878L1.06669 21.9334C1.09108 22.4976 1.11547 23.0618 1.14799 23.6252C1.2769 25.9575 1.67632 28.2669 2.3382 30.5071C3.19834 33.3932 4.37797 35.6866 5.94622 37.5182C7.04293 38.7987 8.15997 39.6987 9.36075 40.2686C11.2249 41.1539 13.2492 41.3767 15.3297 40.9189C17.2312 40.5051 18.9881 39.3946 20.5385 37.6174C22.0343 35.9061 23.1766 33.7923 24.0343 31.1575C24.8952 28.4674 25.3816 25.6716 25.4798 22.8488C25.6228 19.1188 25.3237 15.8522 24.5652 12.8629C23.6863 9.42073 22.3945 6.72976 20.6124 4.64039ZM20.4246 20.4732C20.4246 20.6887 20.4246 20.9049 20.4246 21.1236C20.445 24.5731 20.245 27.3836 19.7938 29.9762C19.4157 32.1452 18.8052 34.9403 17.428 37.3247C16.6012 38.7515 15.6793 39.6523 14.6061 40.0799C14.1804 40.2561 13.7246 40.3486 13.2639 40.3523C12.5094 40.3523 11.7777 40.0856 11.0778 39.5531C9.98187 38.719 9.12661 37.4922 8.38273 35.6915C7.59332 33.7785 7.02911 31.5696 6.65758 28.9388C6.22019 25.8365 6.07386 22.435 6.20881 18.5326C6.29011 16.0864 6.48441 14.0946 6.80635 12.2645C7.15025 10.3134 7.68519 7.79314 8.78922 5.57369C9.58838 3.96399 10.4632 2.92581 11.5404 2.3055C12.6785 1.64942 13.8663 1.64292 15.0248 2.2868C16.1402 2.9063 17.0361 3.96643 17.8442 5.62003C18.6401 7.25169 19.2263 9.17277 19.6929 11.6678C20.123 13.9694 20.3604 16.3921 20.4198 19.0733C20.4303 19.5505 20.4279 20.0407 20.4246 20.4732Z" fill="#242424"/>
<path d="M106.03 39.5312C105.689 38.6857 105.661 37.7605 105.661 36.8069C105.661 27.7015 105.661 20.283 105.661 11.3605V1.17224L100.732 4.72254L100.786 4.78676C101.068 5.1209 101.215 5.73714 101.247 6.72573V8.65331C101.256 8.87688 101.261 9.12484 101.261 9.4289C101.261 19.0538 101.261 26.7885 101.261 36.4142C101.261 36.9573 101.261 37.4874 101.209 38.0118C101.117 39.0231 100.941 39.8117 100.377 40.3694L100.035 40.7092H106.717L106.508 40.4141C106.329 40.131 106.169 39.836 106.03 39.5312Z" fill="#242424"/>
<path d="M93.4174 28.1063L93.454 28.0738C94.3231 27.2933 95.2214 26.486 96.0938 25.6592C96.8799 24.9129 97.4677 24.156 97.8929 23.3455C98.4157 22.3447 98.6782 21.1765 98.6945 19.7741C98.7286 16.8042 97.688 14.4604 95.5995 12.8076C94.5355 11.9423 93.2043 11.4728 91.8329 11.4792C91.2193 11.4829 90.6085 11.5624 90.0143 11.7158C87.8859 12.2491 86.0868 13.7035 84.6665 16.0376C83.2308 18.3952 82.3975 21.2334 82.1901 24.4682C81.9601 28.0453 82.4739 31.3883 83.7177 34.4151C84.4852 36.2849 85.5274 37.8426 86.816 39.0491C88.2729 40.4173 89.9866 41.1238 91.902 41.1498H92.0199C93.1163 41.1555 94.1976 40.8949 95.171 40.3905C97.9352 38.9271 98.6717 36.767 98.4368 35.2354C98.2896 34.2809 97.4612 33.4671 97.1092 33.1614L97.0564 33.1151L97.0466 33.185C96.9653 33.7948 96.7271 35.3419 96.2474 36.5272C95.6344 38.041 94.3524 39.9295 92.7565 40.2669C91.3224 40.571 90.2289 39.9116 89.4135 38.2491C89.0395 37.4881 88.8501 36.5825 88.8347 35.485C88.8143 34.1305 89.129 32.9517 89.768 31.9794C90.4183 30.9908 91.2313 30.0802 92.3906 29.0266C92.7332 28.7204 93.0754 28.4136 93.4174 28.1063ZM91.2183 27.7502L91.1972 27.7819C90.876 28.2697 90.5549 28.7632 90.237 29.2567C89.5346 30.3502 88.9192 31.3526 88.5127 32.5574C88.1771 33.5452 88.0406 34.5896 88.1111 35.6305L88.116 35.7077L87.9079 35.7606L87.881 35.6793C87.8591 35.611 87.8371 35.541 87.8152 35.4703C87.3363 33.9183 87.0306 32.2062 86.8534 30.0835C86.7077 28.2856 86.6646 26.4808 86.7241 24.678C86.8331 21.2578 87.3745 18.3879 88.3688 15.9034C88.9379 14.488 89.5696 13.5165 90.3566 12.8466C90.9378 12.3515 91.6305 12.1475 92.2825 12.2775C93.0069 12.4174 93.6703 12.9483 94.1524 13.7718C94.9149 15.0831 95.0288 16.6067 95.0385 17.9245C95.0572 20.4009 94.3881 22.7122 92.9898 24.9918C92.4085 25.9316 91.8037 26.856 91.2183 27.7502Z" fill="#242424"/>
<path d="M121.875 2.22665C120.394 1.31611 118.37 0.890105 116.835 1.16977C116.634 1.20601 116.436 1.25269 116.241 1.3096C114.296 1.88357 113.453 3.08028 112.494 5.22981C112.061 6.20539 111.885 7.31674 111.716 8.39313C111.663 8.73539 111.607 9.08416 111.546 9.41911C111.51 9.61097 111.476 9.81666 111.44 10.0288C111.262 11.0857 111.06 12.2898 110.538 13.0816C110.234 13.5417 109.898 13.8564 109.538 14.0165C109.178 14.1767 108.76 14.1929 108.355 14.21C108.228 14.2149 108.103 14.2198 107.982 14.2295H107.947V15.0823H110.558V17.4018C110.558 24.6373 110.558 28.5706 110.558 36.3971C110.558 36.9418 110.558 37.4743 110.505 38.0003C110.413 39.0158 110.236 39.8068 109.671 40.3694L109.327 40.71H116.034L115.824 40.4141C115.645 40.1293 115.486 39.8327 115.347 39.5263C115.005 38.6776 114.976 37.7483 114.976 36.7914C114.976 28.9486 114.976 24.6105 114.976 17.4018C114.976 16.6701 114.976 15.9319 114.976 15.1742V15.0823H118.766V14.1068H114.975L114.968 14.0255C114.91 13.2084 114.799 12.2898 114.68 11.3166C114.476 9.63374 114.263 7.89395 114.315 6.52001C114.373 4.95746 114.759 2.9185 116.266 2.07625C116.567 1.89604 116.906 1.78807 117.257 1.76081C117.663 1.74211 118.162 1.93235 118.362 2.3112C118.633 2.82013 118.55 3.54937 118.395 4.07619C118.271 4.4965 118.033 4.9225 117.803 5.33387C117.573 5.74524 117.328 6.18506 117.21 6.60782C117.112 6.9574 117.025 7.36145 117.242 7.74599C117.422 8.06077 117.691 8.31533 118.015 8.47768L118.032 8.48662L118.264 8.37199L118.232 8.33459C118.101 8.19841 118.024 8.02085 118.011 7.83298C118.011 7.81591 118.011 7.79884 118.011 7.78258C118.029 7.61348 118.13 7.45738 118.311 7.32243C118.62 7.10161 118.946 6.90639 119.287 6.73871C119.678 6.53465 120.071 6.33221 120.482 6.12572C120.98 5.87369 121.544 5.58671 122.079 5.30054C122.571 5.03551 122.871 4.64121 122.948 4.16236C122.963 4.06364 122.971 3.9639 122.971 3.864C122.977 3.2193 122.617 2.68273 121.875 2.22665Z" fill="#242424"/>
<path d="M64.8961 12.4483C63.892 12.75 63.066 12.7426 61.8962 12.3321C61.2458 12.1044 60.4873 11.8443 59.7304 11.6077C58.5158 11.2329 57.5117 11.7175 56.8248 13.0093C56.4968 13.6149 56.2147 14.2443 55.9809 14.8922C55.5199 16.1929 55.1679 17.6173 54.8606 19.3782L54.846 19.4595L54.6346 19.4375V10.2769L49.7185 13.8296L49.7722 13.8938C50.077 14.254 50.225 14.9588 50.2388 16.1124L50.2429 20.6253L50.2364 20.7879C50.2477 25.791 50.2429 30.7795 50.2364 35.6037V36.5273C50.2404 37.1093 50.2133 37.6912 50.1551 38.2703C50.0575 39.1646 49.8835 39.8686 49.3478 40.3686L48.9795 40.7133H55.6964L55.4882 40.4182C55.3092 40.1337 55.1498 39.8374 55.011 39.5312C54.6704 38.6857 54.6419 37.7606 54.6419 36.8069C54.6419 36.7712 54.6468 35.4501 54.6468 35.4501C54.6468 34.0544 54.6468 32.6575 54.6468 31.2591V30.4762C54.6436 26.8945 54.9523 23.3193 55.5695 19.7912C55.9492 17.6474 56.3996 15.9531 56.9866 14.4588C57.2199 13.8645 57.5093 13.1906 57.9963 12.7264C58.1833 12.5475 58.3686 12.4678 58.5499 12.4865C58.7312 12.5052 58.8751 12.6182 59.0109 12.8182C59.2339 13.1623 59.4302 13.5229 59.5979 13.8971C59.8035 14.3288 60.0044 14.7645 60.2117 15.2108C60.4791 15.7913 60.7572 16.3913 61.0417 16.9734C61.3076 17.5165 61.7035 17.8474 62.1888 17.9311C62.9847 18.0677 63.6034 17.6872 64.1343 16.7433C64.7481 15.6482 64.957 14.3767 65.1595 13.1467L65.2448 12.6321L65.2806 12.337L64.8961 12.4483Z" fill="#242424"/>
<path d="M46.9457 40.7108L46.7368 40.4157C46.5584 40.132 46.3995 39.8364 46.2612 39.5312C45.9206 38.6857 45.8921 37.7605 45.8921 36.8069C45.8921 36.7703 45.9002 35.8557 45.9002 35.8557C45.8964 29.7388 45.8964 23.6216 45.9002 17.5042V10.28L40.9809 13.8295L41.0345 13.8937C41.3386 14.2539 41.4874 14.9579 41.5012 16.1099L41.5061 20.183C41.5061 20.996 41.5061 21.9602 41.4776 22.9097C41.4288 24.356 41.3248 25.8015 41.1679 27.2071C40.9565 29.1022 40.537 31.0729 39.885 33.2314C39.3321 35.0598 38.6842 36.5565 37.9054 37.806C37.3631 38.6751 36.8639 39.2149 36.2875 39.5572C35.6144 39.9547 34.9014 39.8311 34.3795 39.2247C33.8161 38.5702 33.5665 37.6743 33.3811 36.8036C32.9421 34.7411 32.9031 32.585 32.8998 30.7257C32.8925 26.1259 32.8941 21.4447 32.8949 16.918V10.28L27.9756 13.8295L28.0292 13.8929C28.3487 14.2718 28.4975 15.0376 28.4975 16.3034V18.1164C28.4975 18.2147 28.4975 18.3115 28.4975 18.4074C28.4975 19.4741 28.4975 20.5412 28.4975 21.6089V21.8789C28.4975 23.8097 28.4926 25.8064 28.5073 27.8193C28.5211 29.6729 28.5707 31.1786 28.6642 32.559C28.8008 34.5728 29.1837 36.3061 29.8349 37.858C30.208 38.7474 30.6536 39.4393 31.1982 39.9718C31.9677 40.7299 33.0058 41.1531 34.086 41.149C35.1241 41.1379 36.1282 40.7767 36.9355 40.1238C38.0151 39.2629 38.907 38.0101 39.7427 36.1695C40.3931 34.7321 40.898 33.1509 41.2752 31.3355L41.2922 31.2542L41.5036 31.2802V40.7027H42.9296V40.7116L46.9457 40.7108Z" fill="#242424"/>
</svg>
